<?xml version="1.0" encoding="UTF-8"?>
<!DOCTYPE svg PUBLIC "-//W3C//DTD SVG 1.1//EN" "http://www.w3.org/Graphics/SVG/1.1/DTD/svg11.dtd">
<!-- Creator: CorelDRAW -->
<svg xmlns="http://www.w3.org/2000/svg" xml:space="preserve" width="70mm" height="20mm" version="1.1" style="shape-rendering:geometricPrecision; text-rendering:geometricPrecision; image-rendering:optimizeQuality; fill-rule:evenodd; clip-rule:evenodd"
viewBox="0 0 8163.18 2332.34"
 xmlns:xlink="http://www.w3.org/1999/xlink"
 xmlns:xodm="http://www.corel.com/coreldraw/odm/2003">
 <defs>
  <style type="text/css">
   <![CDATA[
    .fil0 {fill:#ED3237}
   ]]>
  </style>
 </defs>
 <g id="Capa_x0020_1">
  <metadata id="CorelCorpID_0Corel-Layer"/>
  <g id="Logo_x0020_Avileña.cdr">
   <path class="fil0" d="M221.37 993.38c-51.78,-14.58 -146.31,-146.9 -203.4,-168.36 4.09,99.4 29.83,180.43 29.8,299.73 -0.05,134.38 -40.34,203.43 -47.77,299.64 63.4,-22.87 181.02,-133.76 237.64,-146.61 34.86,88.1 84.99,257.09 177.75,277.13 -13.89,-44.34 -41.95,-95.57 -58.7,-141.91 -381.38,-1055.34 909.64,-1240.83 1556.94,-1240.79 409.2,0.01 660.65,1.66 1103.1,57.41 368.6,46.45 508.54,88.4 900.39,84.26 -13.43,-29.99 -33.29,-32.36 -58.91,-47.21 -347.04,-201.13 -34.05,-205.14 -482.89,-241.14 -892.83,-56.15 -3053.64,-116.99 -3153.94,967.86z"/>
   <g>
    <path class="fil0" d="M721.8 1411.94l152.22 -35.88c-7.76,43.16 -161.27,236.17 -133.09,297.76 60.78,61.56 208.65,67.86 310.49,60.01 76.38,-143.42 130.33,-226.63 228.1,-348.64 54.64,-68.21 26.78,-60.66 171.37,-60.75 52.16,0.01 125.34,4.62 168.46,15.64 -8.8,78.02 -119.88,227.17 29.34,312.46 94.86,54.22 230.61,75.58 350.59,42.16 3.65,-32.23 -6.69,-76.21 -2.54,-120.99 18.24,-197.48 223.78,-703.3 305.06,-900.17 18.93,-45.87 83.14,-154.18 31.53,-191.48 -75.16,-54.32 -371.38,-46.11 -463.24,-5.56 -109.7,48.44 -490.34,384.02 -593.18,479.4 -210.87,195.57 -64,118.98 -396.17,122.4 -140.79,1.45 -149.58,18.88 -169.92,99.86 -15.78,62.87 -29.08,177.9 10.99,233.78zm761.39 -255.88c32.96,13.17 176.88,61.45 210.74,61.29 91.86,-144.48 358.59,-575.62 385.99,-642.84 -106.23,20.14 -558.42,479.73 -596.73,581.55z"/>
    <path class="fil0" d="M6844.08 1536.29c11.51,76.29 -19.24,143.21 114.51,186.1 77.12,24.72 191.12,17.77 253.32,-26.86 59.29,-42.58 245.62,-271.53 255.92,-347.53 -26.2,-20.21 -44.07,-21.22 -83.63,-18.89 -33.85,33.6 -83.91,117.14 -117.11,161.64 -42.4,56.83 -78.3,99.38 -130.11,147.1 -25.82,-161.39 196.57,-501.08 193.5,-571.39 -91.85,-32.27 -169.58,-32.7 -263.38,-9.46 -39.57,9.81 -73.75,-11.01 -120.47,-17.49 -221.96,-30.76 -414.5,84.17 -526.71,249.61 -90.65,133.62 -168.45,330.63 25.54,410.21 66.33,27.21 204.25,35.47 277.89,17.73 43.78,-10.55 48.97,-45.56 68.68,-81.68 14.04,-25.74 45.83,-75.93 52.06,-99.09zm-197.37 101.7c38.41,-16.24 341.28,-439.2 333.36,-515.1 -159.11,10.09 -373.24,431.66 -333.36,515.1z"/>
    <path class="fil0" d="M6044.39 1427.04l159.91 -363.41c-42.47,-50.52 -181.84,-66.19 -261.12,-58.22 -104.03,10.45 -143.4,59.3 -197.67,129.33 -45.15,58.29 -93.36,127.75 -132.95,193.5 -18.85,31.3 -99.45,190.4 -125.99,207.73 12.82,-142.07 196.36,-413.97 206.83,-481.78 -229.32,-62.79 -288.32,-48.44 -377.27,145.06 -31.2,67.84 -157.07,393.48 -104.77,461.15 45.25,58.55 144.88,59.59 229.02,48.4 61.11,-8.12 74.67,2.99 96.34,-54.68 42.95,-114.16 237.91,-417.3 298,-450.26 -21.73,61.48 -219.32,351.08 -167.45,436.64 20.34,33.55 92.68,75.78 133.23,73.03 11.48,9.73 -0.56,3.1 18.44,9.97 97.78,35.3 237.69,-8.57 320.91,-43.85 53.11,-22.52 94.1,-38.27 101.77,-105.96 7.53,-66.48 -11.34,-126.79 -55.84,-153.02 -52.12,33.41 -89.98,161.71 -176.23,188.09 -4.58,-75.5 22.53,-114.68 34.83,-181.71z"/>
    <path class="fil0" d="M4568.39 1736.52c133.97,-0.23 278.29,-25.39 387.68,-82.76 250.64,-131.47 42.62,-200.99 -2.18,-184.25 -26.92,22.26 -41.4,55.35 -77.8,88 -160.72,144.21 -338.62,76.61 -265.8,-71.81 74.8,-24.89 130.28,3.87 288.25,-56.55 111.42,-42.61 246.24,-147.93 242.1,-271.75 -4.26,-127.85 -387.44,-128.94 -496.82,-128.95 -173.32,0 -295.95,193.86 -346.99,343.25 -34.87,102.02 -52.15,193.21 16.86,266.88 62.79,67.02 139.26,98.14 254.7,97.96zm80.48 -356.74c31.78,-5.19 102.83,-78.61 119.64,-97.31 37.63,-41.84 77.01,-82.33 77.49,-161.02 -86.89,4.91 -170.04,186.41 -197.13,258.33z"/>
    <path class="fil0" d="M2513.85 1593.5c-4.21,-183.72 170.04,-475.8 168.86,-529.84 -55.05,-31.08 -138.39,-35.26 -209.77,-27.14 -158.44,18.08 -219.25,328.79 -239.03,466.54 -54.25,377.64 311.38,224.73 515.12,45.41 84.98,-74.81 161.47,-168.81 212.09,-256.97 28.89,-50.31 54.74,-103.15 69.49,-166.58 10.17,-43.71 4.33,-54.58 -32.43,-74.4 -80.75,-43.56 -247.69,-26.69 -258.21,54.7 -17.85,138.14 -8.34,207.46 -110.02,358.31 -16.66,24.75 -28.27,42.17 -49.11,68.03 -29.6,36.7 -33.67,51.26 -67,61.92z"/>
    <path class="fil0" d="M4149.37 1447.24c-43.67,24.72 -114.75,187.69 -180.17,189.01 -20.34,-136.59 73.96,-330.97 127.89,-424.53 48.96,-84.93 101.38,-183.73 161.21,-258.22 20.41,-25.4 52.85,-55.99 59.8,-85.85 -210.51,-131.96 -299.68,-70.1 -410.28,96.21 -70.61,106.18 -323.67,541.24 -233.44,681.53 102.18,158.87 432.24,70.74 490.99,27.54 64.52,-47.43 48.33,-175.67 -16,-225.69z"/>
    <path class="fil0" d="M3537.6 1435.38c-47.91,28.21 -106.27,182.84 -181.13,185.47 -15.07,-177.02 190.8,-499.06 196.98,-552.83 -77.81,-9.28 -167.26,-15.86 -250.98,-6.85 -62.43,6.72 -85.34,68.26 -123.05,136.14 -144.05,259.23 -270.04,637.65 213.79,515.62 61.66,-15.56 152.73,-28.44 182.65,-77.29 36.42,-59.4 13.1,-169.15 -38.25,-200.25z"/>
    <path class="fil0" d="M5666.22 867.14c34.24,-37.46 46.61,-106.66 83.8,-138.13 41.47,15.06 115.29,105.93 137.95,135.53 67.15,-5.63 360.42,-105.42 273.29,-279.86 -15.17,-30.37 -17.11,-33.27 -46.51,-44.08l-62.94 159.24c-47.1,-11.95 -15.75,-50.52 -118.91,-121.62 -55.64,-38.34 -64.3,-56.16 -164.05,9.11 -46.09,30.18 -91.11,77.28 -123.54,119.32 -37.91,49.13 -53.56,143.35 20.91,160.49z"/>
    <path class="fil0" d="M3307.84 986.61c31.5,18.22 76.64,18.01 120.73,18.45 43.01,0.42 104.37,6.82 136.26,-7.63 28.91,-13.1 109.06,-127.68 113.29,-169.93 -50.27,-42.08 -169.85,-74.96 -250.15,-42.2 -55.31,22.55 -121.63,126.41 -120.13,201.32z"/>
   </g>
   <path class="fil0" d="M7941.81 1338.96c51.78,14.59 146.3,146.9 203.39,168.35 -4.07,-99.39 -29.83,-180.42 -29.78,-299.71 0.03,-134.39 40.33,-203.44 47.77,-299.65 -63.4,22.87 -181.02,133.77 -237.64,146.61 -34.87,-88.12 -84.99,-257.09 -177.75,-277.13 13.88,44.33 41.95,95.57 58.69,141.91 381.41,1055.35 -909.64,1240.83 -1556.94,1240.79 -693.98,-0.02 -1346.23,-107.8 -2003.48,-141.67 13.43,30.01 33.29,32.36 58.91,47.21 347.04,201.13 34.04,205.14 482.89,241.14 892.82,56.15 3053.65,116.99 3153.94,-967.86z"/>
  </g>
 </g>
</svg>
