<?xml version="1.0" encoding="UTF-8"?>
<!DOCTYPE svg PUBLIC "-//W3C//DTD SVG 1.1//EN" "http://www.w3.org/Graphics/SVG/1.1/DTD/svg11.dtd">
<!-- Creator: CorelDRAW -->
<svg xmlns="http://www.w3.org/2000/svg" xml:space="preserve" width="59.9999mm" height="40mm" version="1.1" style="shape-rendering:geometricPrecision; text-rendering:geometricPrecision; image-rendering:optimizeQuality; fill-rule:evenodd; clip-rule:evenodd"
viewBox="0 0 5207.77 3471.85"
 xmlns:xlink="http://www.w3.org/1999/xlink"
 xmlns:xodm="http://www.corel.com/coreldraw/odm/2003">
 <defs>
  <style type="text/css">
   <![CDATA[
    .fil1 {fill:#FBAF30}
    .fil3 {fill:#ED3237}
    .fil0 {fill:#FBAF30;fill-rule:nonzero}
    .fil2 {fill:#ED3237;fill-rule:nonzero}
    .fil4 {fill:#2E3192;fill-rule:nonzero}
   ]]>
  </style>
 </defs>
 <g id="Capa_x0020_1">
  <metadata id="CorelCorpID_0Corel-Layer"/>
  <g id="_2077736094384">
   <path class="fil0" d="M3645.95 1626.01c-1145.82,162.51 -2046.11,1029.3 -2183.5,1151.08 1040.74,-694.11 2008.23,-953.33 2838.02,-941.55 1099.39,15.52 541.18,-379.08 -654.51,-209.53z"/>
   <path class="fil1" d="M5205.62 692.45c-31.27,162.99 -93.08,199.35 -264.39,206.52 -15.38,0.62 -47.25,-13.61 -47.25,-51.34 0,-152.86 170.75,-155.18 311.64,-155.18z"/>
   <path class="fil2" d="M2378.94 1548.95c-25.77,60.07 -96.77,222.14 -146.1,245.87 -20.25,9.75 -21.99,-31.32 -23.24,-53.03 -6.48,-108.93 37.4,-264.62 71.43,-367.86 24.34,-73.72 81.24,-229.15 139.4,-249.72 29.14,-10.8 34.82,41.28 37.63,72.31 10.35,114.89 -34.41,248.27 -79.13,352.44zm304.48 102.06c-39.53,-14.01 -50.25,-139.5 -53.68,-189.38 -3.57,-41.9 -3.84,-87.29 -3.8,-130.57 0.08,-68.68 2.81,-137.98 5.01,-206.47 0.49,-24.49 1.52,-51.47 -0.71,-75.27 -5.5,-57.55 -38.4,-73.25 -75.83,-62.01 -0.8,-1.17 -1.89,-3.86 -2.72,-4.83 -21.63,-52.03 -55.19,-82.35 -100.78,-66.95 -118.41,40.31 -203.23,214.98 -260.74,373.75 -31.44,86.76 -59.61,181.53 -78.14,277.59 -18.7,96.99 -29.62,195.71 -24.42,288.81 2.14,61.46 14.63,113.54 42.37,145.92 25.43,29.33 57.01,38.64 95.42,19.81 56.99,-28.65 110.93,-94.28 155.94,-162.99 44.85,-67.02 83.47,-144 117.37,-221.96 6.82,57.59 17.59,114.44 36.74,157.95 19.74,47.65 49.73,85.61 96.07,65.77 22.51,-10.29 43.67,-31.81 61.62,-57.01 17.48,-25.54 33.23,-56.63 32.07,-89.51 -1.85,-35.52 -20.15,-53.92 -41.78,-62.67z"/>
   <path class="fil2" d="M3142.25 1246.79c-22.31,74.22 -53.37,147.07 -98.47,207.99 -32.25,43.1 -72.6,85.24 -116.75,97.34 -20.32,5.88 -36.39,-13.11 -48.49,-32.57 19.91,-124.98 63.58,-243.2 115.25,-348.62 30.73,-62.49 94.45,-176.18 155.27,-184.93 2.87,0.81 6.59,8.25 8.14,10.31 7.45,14.94 11.62,32.91 13.8,50.12 6.47,63.86 -11.38,141.14 -28.75,200.35zm180.61 -255.72c-5.71,-51.04 -21.38,-98.05 -51.31,-136.12 -26.72,-35.58 -59.59,-56.05 -98.49,-51.75 -70.93,8.09 -134,71.61 -180.77,138.46 -38.23,54.63 -70.14,115.36 -96.9,180.64 2.99,-65.44 6.36,-130.27 10.59,-195.09 5.09,-70.45 11.78,-145.97 23.9,-215.02 13.9,-75.76 27.7,-174.32 21.46,-252.6 -4.63,-53.48 -21.33,-116.52 -70,-110.83 -20.16,2.35 -38.18,11.78 -53.13,30.8 -16.81,21.92 -24.57,58.87 -30.1,88.91 -5.29,32.23 -7.97,69.34 -10.28,102.15 -3.63,62.38 -6.94,125.55 -9.25,188.29 -2.12,76.48 -5.75,154 -7.66,231.28 -2,77.93 -4.39,155.79 -6.59,233.64 -2.07,64.67 -3.34,129.71 -4.13,194.53 -0.14,37.33 -0.46,77.47 2.39,114.25 2.5,35.97 16.74,62.52 36.58,80.98 6.34,6.34 9.07,21.13 10.53,31.42 5.9,41.21 25.74,66.28 51.94,79.29 27.45,13.38 56.12,16.15 86.85,6.73 121.42,-37.19 214.9,-158.52 282.24,-287.83 36.4,-70.29 64.43,-143.07 80.53,-218.67 15.85,-74.71 20.66,-152.68 11.6,-233.44z"/>
   <path class="fil2" d="M3738.6 1232.77c-34.55,52.7 -84.08,107.53 -146.4,114.55 -20.31,2.27 -35.79,-6.8 -48.77,-25.39 -18.69,-26.64 -27.38,-62.56 -31.16,-96.48 -8.94,-88.27 7.77,-175.83 35.48,-253.66 22.98,-64.52 60.74,-124.2 126.13,-123.74 30.07,0.25 54.07,13.35 75.58,40.85 26.06,33.37 37.98,75.23 43.2,116.37 10.99,86.21 -10.38,160.82 -54.07,227.5zm129.87 -448.75c-50.8,-62.98 -112.29,-95.09 -180.61,-97.65 -113.47,-4.25 -188.92,76.75 -237.55,189.43 -50.53,117.12 -77.15,247.98 -63.28,387.15 7.48,75.29 30.49,142.58 75.19,193.89 42.78,49.02 95.02,68.44 155.07,58.06 108.64,-12.95 191.52,-92.79 255.22,-185.61 66.67,-97.21 102.91,-205.2 86.46,-332.95 -9.96,-76.96 -39.12,-148.61 -90.49,-212.3z"/>
   <path class="fil2" d="M4815.35 1098.23c19.9,-16.2 59.17,-40.4 101.08,-22.78 1.68,0.74 5.46,2.79 6.73,3.75 1.94,2.15 3.7,8.59 4.04,10.04 8.62,50.93 -97.62,79.77 -169.71,99.32 10.88,-36.64 29.63,-67.19 57.87,-90.34zm390.33 343.84c-4.04,-22.64 -21.73,-49.84 -56.17,-62.8 -19.94,-7.52 -35.74,-2.6 -46.84,3.01 -59.01,29.83 -141.04,58.58 -242.08,31.42 -25.21,-6.71 -53.48,-17.06 -74.12,-38.12 -19.6,-20.08 -28.7,-42.47 -32.08,-63.8 -1.43,-9.28 9.15,-12.05 16.24,-13.39 84.43,-16.26 167.88,-37.58 235.73,-64.52 51.53,-20.42 89.11,-54.24 76.94,-119.48 -5.2,-28.01 -22.63,-58.77 -51.96,-91.19 -30.51,-33.82 -64.24,-61 -103.05,-78.06 -123.16,-54.19 -206.01,-20.67 -261.66,37.17 -31.9,33.08 -55.58,74.87 -67.62,122.8 -12.35,49.41 -15.11,103.88 -5.96,163.97 9.27,60.63 33.08,123.2 85.09,177.34 52.4,54.5 117,84.21 183.53,98.8 94.48,20.67 174.91,14.39 241.35,-8.18 44.79,-15.22 112.33,-40.85 102.66,-94.98z"/>
   <path class="fil2" d="M4620.92 951.56c-4.99,-34.06 -24.89,-66.9 -54.59,-97.44 -32.92,-33.37 -69.83,-54.04 -109.59,-65.45 -20.93,-5.85 -41.33,-7.37 -60.64,-6.22 -22.78,2.01 -43.95,10.95 -62.58,21.85 -26.02,16.26 -48.62,40.19 -66.87,63.96 -23.03,28.72 -43.95,59.97 -62.09,93.74 -11.02,20.66 -20.94,43.7 -29.57,66.9 -0.92,-18.04 -1.03,-35.1 0.5,-49.84 0.57,-14.74 0.78,-30.13 0.57,-45.52 -0.86,-18.61 3.52,-43.29 6.02,-60.46 3.41,-22.52 5.67,-48.82 2.14,-72.8 -2.27,-17.26 -10.28,-33.67 -22.24,-49.24 -15.65,-19.05 -35.79,-30.49 -56.02,-34.26 -21.08,-3.58 -38.43,1.15 -53.26,13.25 -12.93,10.53 -23.12,24.78 -27.05,43.24 -3.65,20.74 -2.7,50.19 -0.84,72.87 0.95,17.75 1.36,36.32 1.41,54 -0.56,63.53 5.09,130.66 11.86,195.73 4.26,43.95 8.53,88.52 14.15,132.03 5.61,49.79 14.36,116.65 32.38,164.44 13.7,33.96 35.6,64.08 72.21,63.88 23.02,1.45 45.58,-3.11 61.53,-18.78 18.67,-17.45 21.92,-51.08 21.67,-77.62 0.25,-120.82 29.92,-225.35 86.3,-313.31 19.59,-30.17 85.36,-121.33 132.91,-109.48 11.18,3.01 22.27,12.24 30.38,21.23 20.22,21.72 43.48,38.32 69.21,44.54 21.41,5.06 41.6,3.38 52.58,-9.89 9.04,-10.62 12.68,-24.54 9.5,-41.33z"/>
   <path class="fil3" d="M1865.11 1343.16c-35.93,-6.74 -75.1,1.72 -127.92,16.7 -22.84,7.49 -45.89,15.21 -68.79,22.75l-1418.93 506.04 0.05 0.1c-19.84,7.23 -38.3,14.06 -54.27,20.07 -6.25,2.22 -13.54,-9.14 0.27,-23.88 26.44,-26.26 698.85,-878.13 1735.42,-611.32 -1106.97,-797.55 -2330.01,704.53 -1805.8,855.03 35.96,6.76 75.08,-1.72 127.9,-16.7 18.43,-6.02 36.99,-12.19 55.46,-18.31l0.1 0.35 1418.95 -506.1c24.83,-8.98 48.02,-17.51 67.42,-24.85 6.28,-2.26 13.57,9.18 -0.23,23.9 -26.44,26.26 -698.84,878.08 -1735.44,611.26 1106.97,797.55 2330.01,-704.48 1805.8,-855.03z"/>
   <path class="fil3" d="M1195.43 930.7c0,0 36.71,-6.24 84.58,-10.89 19.26,-43.22 93.36,-197.05 105.63,-225.61 207.65,-483.86 -50.77,-694.2 -239.83,-694.2 -158.85,0 -634.21,156.3 -493.16,1041.46 19.89,124.71 94.58,403.42 176.95,694.44l0.03 0c0.02,0.1 0.08,0.31 0.08,0.31 121.92,467.71 256.9,812.63 278.62,909.33 103.47,459.82 -205.6,626.04 -316.57,626.04 -164.31,0 -218.77,-259.56 -70.76,-592.62 9.58,-19.47 73.79,-137.81 73.79,-137.81 0,0 -36.71,6.19 -84.57,10.87 -19.25,43.22 -93.37,197.03 -105.65,225.6 -207.66,483.85 50.78,694.21 239.83,694.21 158.84,0 634.21,-156.28 493.16,-1041.46 -19.86,-124.74 -94.57,-403.46 -176.95,-694.48l-0.02 0 -0.09 -0.3c-121.91,-467.69 -256.89,-812.64 -278.62,-909.32 -103.47,-459.81 205.6,-626.04 316.56,-626.04 164.35,0 218.8,259.57 70.78,592.62 -9.56,19.46 -73.79,137.83 -73.79,137.83z"/>
   <path class="fil2" d="M5140.84 1602.11c-29.29,0 -53.17,26.57 -53.17,59.16 0,32.59 23.88,59.16 53.17,59.16 29.33,0 53.14,-26.57 53.14,-59.16 0,-32.59 -23.81,-59.16 -53.14,-59.16zm0 132.36c-36.29,0 -65.83,-32.83 -65.83,-73.2 0,-40.38 29.54,-73.21 65.83,-73.21 36.26,0 65.79,32.84 65.79,73.21 0,40.38 -29.53,73.2 -65.79,73.2z"/>
   <path class="fil2" d="M5119.94 1654.43l22.2 0c4.71,0 8.43,-0.56 11.09,-1.61 2.63,-1.1 4.68,-2.86 6.05,-5.24 1.39,-2.4 2.08,-5 2.08,-7.81 0,-4.09 -1.36,-7.45 -4.01,-10.14 -2.7,-2.61 -6.92,-3.94 -12.73,-3.94l-24.68 0 0 28.75zm-10.33 48.51l0 -86.86 34.62 0c6.94,0 12.24,0.78 15.87,2.33 3.58,1.56 6.47,4.31 8.67,8.28 2.15,3.94 3.24,8.3 3.24,13.07 0,6.15 -1.81,11.36 -5.36,15.61 -3.6,4.2 -9.15,6.9 -16.6,8.05 2.68,1.5 4.77,2.92 6.21,4.37 2.99,3.06 5.86,6.9 8.57,11.54l13.57 23.63 -12.97 0 -10.35 -18.1c-3.04,-5.16 -5.5,-9.18 -7.46,-11.94 -1.95,-2.75 -3.69,-4.68 -5.24,-5.82 -1.54,-1.08 -3.11,-1.88 -4.7,-2.29 -1.16,-0.3 -3.07,-0.44 -5.75,-0.44l-11.99 0 0 38.59 -10.33 0z"/>
   <path class="fil4" d="M3524.84 2231.84c-15.13,-21.94 -45.43,-29.02 -66.23,-29.02 -42.97,0 -75.01,34.53 -75.01,86.65 0,63.08 31.33,94.84 76.77,94.84 23.96,0 50.72,-10.58 63.76,-25.87l1.77 0 0 19.97c0,36.84 -38.41,52.53 -71.86,52.53 -64.14,0 -119.07,-53.31 -119.07,-133.65 0,-82.72 49.66,-141.12 123.3,-141.12 39.45,0 68.32,18.03 68.32,54.87l0 20.8 -1.75 0z"/>
   <path class="fil4" d="M3649.47 2336.48l-16.91 0c-35.92,0 -46.15,9.43 -46.15,26.66 0,16.46 11.99,26.26 32.77,26.26 20.45,0 30.28,-10.97 30.28,-32.55l0 -20.37zm-25.71 95.65l-9.51 0c-45.07,0 -76.11,-28.22 -76.11,-67.05 0,-37.62 24.66,-66.24 94.43,-66.24l16.55 0 0 -2.71c0,-29.81 -12.67,-38.79 -40.85,-38.79 -34.18,0 -53.2,14.47 -60.25,24.29l-1.75 0 0 -16.89c0,-23.49 19.01,-51.71 69.02,-51.71 42.3,0 80.36,21.93 80.36,94.85l0 48.59c0,44.68 -29.61,75.67 -71.88,75.67z"/>
   <path class="fil4" d="M3787.84 2430.56c-39.09,0 -60.21,-23.12 -60.21,-65.85l0 -218.3 13.35 0c23.6,0 33.83,15.28 33.83,35.26l0 177.96c0,21.15 9.83,27.81 32.04,27.81l12.71 0 0 11.36c0,22.75 -10.94,31.77 -31.72,31.77z"/>
   <path class="fil4" d="M3896.29 2430.56c-36.63,0 -56.7,-23.12 -56.7,-65.85l0 -143.06 13.37 0c21.13,0 33.82,12.52 33.82,39.19l0 98.78c0,21.15 8.13,27.81 28.89,27.81l8.81 0 0 11.36c0,22.75 -8.11,31.77 -28.19,31.77zm-33.44 -228.52c-15.17,0 -27.5,-14.11 -27.5,-30.96 0,-16.86 12.33,-30.58 27.5,-30.58 15.13,0 27.82,13.71 27.82,30.58 0,16.85 -12.69,30.96 -27.82,30.96z"/>
   <path class="fil4" d="M4020.95 2256.51c-23.94,0 -39.46,25.88 -39.46,59.97 0,43.9 20.47,72.51 47.59,72.51 26.39,0 38.05,-21.94 38.05,-60.37 0,-52.89 -20.83,-72.11 -46.18,-72.11zm2.47 176.77c-50,0 -88.4,-48.61 -88.4,-106.61 0,-69.35 30.28,-114.45 85.59,-114.45 19.03,0 39.82,14.91 47.22,33.35l0 -99.17 14.43 0c22.58,0 32.41,14.49 32.41,35.65l0 148.93c0,61.56 -26.06,102.31 -91.25,102.31z"/>
   <path class="fil4" d="M4256.2 2336.48l-16.93 0c-35.92,0 -46.13,9.43 -46.13,26.66 0,16.46 11.97,26.26 32.77,26.26 20.43,0 30.29,-10.97 30.29,-32.55l0 -20.37zm-25.73 95.65l-9.52 0c-45.06,0 -76.08,-28.22 -76.08,-67.05 0,-37.62 24.64,-66.24 94.39,-66.24l16.54 0 0 -2.71c0,-29.81 -12.66,-38.79 -40.84,-38.79 -34.15,0 -53.2,14.47 -60.24,24.29l-1.77 0 0 -16.89c0,-23.49 19.05,-51.71 69.06,-51.71 42.28,0 80.33,21.93 80.33,94.85l0 48.59c0,44.68 -29.57,75.67 -71.88,75.67z"/>
   <path class="fil4" d="M4409.72 2256.51c-23.94,0 -39.45,25.88 -39.45,59.97 0,43.9 20.43,72.51 47.56,72.51 26.41,0 38.06,-21.94 38.06,-60.37 0,-52.89 -20.81,-72.11 -46.17,-72.11zm2.45 176.77c-50.01,0 -88.41,-48.61 -88.41,-106.61 0,-69.35 30.31,-114.45 85.62,-114.45 19.02,0 39.81,14.91 47.2,33.35l0 -99.17 14.44 0c22.57,0 32.43,14.49 32.43,35.65l0 148.93c0,61.56 -26.08,102.31 -91.28,102.31z"/>
   <path class="fil4" d="M4687.69 2299.37c-17.15,0 -29.02,15.58 -29.81,33.77l-0.28 5.3 15.85 0c33.53,0 41.17,-4.11 41.17,-15.28 0,-15.87 -10.59,-23.8 -26.93,-23.8zm-6.61 66.95l-23.2 0c2.62,20.01 19,32.62 39.84,32.62 14.79,0 32.21,-3.24 43.55,-14.98l1.32 0 0 12.33c0,20.25 -12.4,35.85 -51.46,35.85 -35.38,0 -69.95,-31.14 -69.95,-79.6 0,-52.87 29.02,-86.05 69.67,-86.05 29.55,0 57,23.48 57,61.39 0,29.09 -19.78,38.44 -66.77,38.44z"/>
   <path class="fil4" d="M4885.73 2428.59c-15.85,0 -25.87,-11.14 -25.87,-25.86l0 -62.83c0,-26.72 -10.56,-38.47 -28.77,-38.47 -15.33,0 -25.87,12.9 -25.87,35.53l0 91.62 -10.57 0c-15.04,0 -24.81,-11.14 -24.81,-25.86l0 -68.41c0,-33.48 19.82,-67.83 64.13,-67.83 33.54,0 61.27,24.93 61.27,69.88l0 92.22 -9.52 0z"/>
   <path class="fil4" d="M3770.98 2656.48c-5.14,-9.86 -19.74,-17.85 -41.78,-17.85 -22.31,0 -42.06,20.08 -42.06,45.55 0,31.17 16.6,52.49 42.63,52.49 22.05,0 35.19,-7.94 40.64,-15.89l1.42 0 0 19.74c0,20.69 -18.02,35.66 -45.78,35.66 -42.34,0 -78.96,-36.61 -78.96,-85.63 0,-49.02 30.6,-91.07 83.25,-91.07 24.59,0 42.04,16.58 42.04,36.95l0 20.05 -1.41 0z"/>
   <path class="fil4" d="M3883.15 2698.19l-13.74 0c-29.19,0 -37.48,7.65 -37.48,21.65 0,13.38 9.71,21.33 26.6,21.33 16.61,0 24.62,-8.91 24.62,-26.41l0 -16.56zm-20.9 77.67l-7.72 0c-36.62,0 -61.78,-22.92 -61.78,-54.43 0,-30.56 20.01,-53.81 76.66,-53.81l13.44 0 0 -2.25c0,-24.2 -10.28,-31.52 -33.18,-31.52 -27.76,0 -43.2,11.79 -48.93,19.76l-1.42 0 0 -13.69c0,-19.13 15.45,-42.05 56.08,-42.05 34.33,0 65.23,17.85 65.23,77.07l0 39.45c0,36.32 -24.03,61.46 -58.37,61.46z"/>
   <path class="fil4" d="M4037.93 2642.78c-5.72,-2.54 -12.32,-5.09 -22.32,-5.09 -17.17,0 -26.61,10.53 -26.61,36.6l0 98.69 -10.58 0c-17.16,0 -28.07,-9.55 -28.07,-27.38l0 -78.92c0,-34.41 16.34,-67.22 56.96,-67.22 23.73,0 32.03,14.99 32.03,28.04l0 15.28 -1.41 0z"/>
   <path class="fil4" d="M4185.84 2772.99c-17.17,0 -28.04,-12.09 -28.04,-28.04l0 -68.1c0,-28.96 -11.46,-41.7 -31.19,-41.7 -16.59,0 -28.05,14 -28.05,38.49l0 99.35 -11.44 0c-16.31,0 -26.87,-12.09 -26.87,-28.04l0 -74.17c0,-36.27 21.45,-73.52 69.5,-73.52 36.36,0 66.41,27.06 66.41,75.76l0 99.95 -10.31 0z"/>
   <path class="fil4" d="M4297.7 2632.91c-18.6,0 -31.47,16.87 -32.33,36.64l-0.28 5.7 17.18 0c36.32,0 44.62,-4.45 44.62,-16.53 0,-17.19 -11.42,-25.8 -29.19,-25.8zm-7.13 72.61l-25.2 0c2.86,21.65 20.61,35.33 43.22,35.33 16.03,0 34.89,-3.51 47.21,-16.26l1.41 0 0 13.39c0,21.96 -13.43,38.83 -55.76,38.83 -38.36,0 -75.83,-33.76 -75.83,-86.27 0,-57.3 31.46,-93.27 75.52,-93.27 32.04,0 61.83,25.45 61.83,66.53 0,31.52 -21.49,41.71 -72.4,41.71z"/>
   <path class="fil4" d="M4438.47 2776.82c-28.31,0 -49.51,-16.23 -49.51,-33.76l0 -19.43 1.42 0c8.33,8.63 28.07,16.27 46.38,16.27 18.86,0 28.01,-6.08 28.01,-18.78 0,-9.87 -5.42,-14.65 -32.02,-18.81 -32.61,-5.07 -48.35,-19.42 -48.35,-45.5 0,-32.18 26.04,-59.52 65.52,-59.52 34.89,0 49.22,20.03 49.22,36.58l0 16.27 -1.45 0c-8.02,-8.94 -25.74,-15.92 -44.06,-15.92 -23.46,0 -30.9,7.93 -30.9,19.08 0,8.62 4.56,12.1 30.9,16.9 32.05,5.73 49.22,21.33 49.22,48.7 0,36.26 -22.89,57.94 -64.39,57.94z"/>
   <path class="fil4" d="M4711.36 2586.09c-6.01,-2.26 -12.91,-3.83 -22.34,-3.83 -15.71,0 -27.47,6.02 -27.47,28.95l0 15.28 44.08 0 0 11.8c0,15.28 -14.61,24.17 -27.49,24.17l-16.59 0 0 114.62 -15.44 0c-12.28,0 -23.18,-10.5 -23.18,-25.47l0 -143.89c0,-24.19 15.18,-63.02 60.11,-63.02 16.59,0 29.44,10.18 29.44,27.03l0 14.36 -1.11 0z"/>
   <path class="fil4" d="M4818.66 2646.87c-5.75,-2.55 -12.33,-5.09 -22.35,-5.09 -17.17,0 -26.59,10.51 -26.59,36.61l0 98.68 -10.59 0c-17.15,0 -28.04,-9.52 -28.04,-27.38l0 -78.94c0,-34.38 16.3,-67.17 56.93,-67.17 23.76,0 32.05,14.99 32.05,28.02l0 15.28 -1.41 0z"/>
   <path class="fil4" d="M4895.32 2778.68c-29.79,0 -46.07,-18.81 -46.07,-53.51l0 -116.19 10.87 0c17.17,0 27.47,10.18 27.47,31.84l0 80.22c0,17.21 6.59,22.6 23.46,22.6l7.16 0 0 9.23c0,18.5 -6.59,25.81 -22.89,25.81zm-2.29 -206.3c-9.44,4.47 -22.61,7.63 -32.91,7.63l-12.9 0 0 -1.59c6.34,-10.8 13.18,-21.33 21.49,-29.61 9.15,-9.23 16.02,-15.28 27.18,-15.28 9.43,0 16.03,4.77 16.03,16.24 0,9.23 -7.17,17.19 -18.89,22.6z"/>
   <path class="fil4" d="M5026.08 2702.26l-13.73 0c-29.19,0 -37.49,7.66 -37.49,21.67 0,13.37 9.72,21.33 26.61,21.33 16.6,0 24.61,-8.92 24.61,-26.42l0 -16.58zm-20.89 77.69l-7.72 0c-36.63,0 -61.82,-22.94 -61.82,-54.46 0,-30.56 20.04,-53.8 76.69,-53.8l13.44 0 0 -2.2c0,-24.2 -10.29,-31.52 -33.18,-31.52 -27.76,0 -43.19,11.76 -48.93,19.74l-1.46 0 0 -13.71c0,-19.08 15.49,-42.02 56.11,-42.02 34.33,0 65.24,17.83 65.24,77.06l0 39.47c0,36.29 -24.03,61.43 -58.38,61.43z"/>
   <path class="fil4" d="M5143.4 2780.91c-28.33,0 -49.5,-16.24 -49.5,-33.76l0 -19.42 1.4 0c8.3,8.59 28.07,16.21 46.38,16.21 18.87,0 28.04,-6.03 28.04,-18.76 0,-9.89 -5.46,-14.67 -32.07,-18.78 -32.59,-5.12 -48.35,-19.42 -48.35,-45.52 0,-32.15 26.05,-59.55 65.53,-59.55 34.92,0 49.22,20.06 49.22,36.64l0 16.2 -1.46 0c-7.99,-8.89 -25.74,-15.89 -44.06,-15.89 -23.46,0 -30.91,7.96 -30.91,19.1 0,8.59 4.61,12.09 30.91,16.87 32.08,5.7 49.24,21.33 49.24,48.7 0,36.29 -22.9,57.95 -64.38,57.95z"/>
  </g>
 </g>
</svg>
