<?xml version="1.0" encoding="UTF-8"?>
<!DOCTYPE svg PUBLIC "-//W3C//DTD SVG 1.1//EN" "http://www.w3.org/Graphics/SVG/1.1/DTD/svg11.dtd">
<!-- Creator: CorelDRAW -->
<svg xmlns="http://www.w3.org/2000/svg" xml:space="preserve" width="298.76mm" height="199.159mm" version="1.1" style="shape-rendering:geometricPrecision; text-rendering:geometricPrecision; image-rendering:optimizeQuality; fill-rule:evenodd; clip-rule:evenodd"
viewBox="0 0 10587.4 7057.73"
 xmlns:xlink="http://www.w3.org/1999/xlink"
 xmlns:xodm="http://www.corel.com/coreldraw/odm/2003">
 <defs>
  <style type="text/css">
   <![CDATA[
    .fil1 {fill:#ED3237}
    .fil3 {fill:#EEB256}
    .fil0 {fill:#3E4095}
    .fil4 {fill:#ED3237;fill-rule:nonzero}
    .fil2 {fill:#2E3192;fill-rule:nonzero}
   ]]>
  </style>
 </defs>
 <g id="Capa_x0020_1">
  <metadata id="CorelCorpID_0Corel-Layer"/>
  <g id="_2077505969568">
   <path class="fil0" d="M5888.08 5366.42c-455.24,439.81 -1854.3,1248.06 -3368.72,1115.02 -1449.2,-127.38 -2357.07,-1484.47 -2519.34,-1990.18 -1.34,-4.1 120.34,550.68 472.65,1145.28 381.86,644.47 1034.71,1335.76 2095.66,1412.77 2024.83,147.11 3327.75,-1682 3320.15,-1683.17 -0.05,0 -0.16,0.05 -0.39,0.29z"/>
   <path class="fil0" d="M4867.48 5311.2c-890.21,334.79 -1773.32,486.78 -2661.66,44.25 -295.73,-147.35 -622.76,-122.85 -936.29,35.61 802.3,827.09 2693.77,833.93 3703.68,-123.21 -35.24,14.47 -70.17,29.95 -105.74,43.34z"/>
   <g>
    <path class="fil1" d="M1463.79 3965.22c-53.1,-22.5 -226.92,-227.19 -326.09,-299.56 -133.31,-97.37 -298.46,-175.37 -469.74,-159.06 -685.74,65.04 -655.72,1337.03 361.78,1174.55 294.45,-47.04 564.07,-243.22 712.71,-492.78 190.05,-319.16 247.49,-711.66 77.82,-1013.4 -152.56,-271.43 -409.89,-418.8 -643.43,-655.76 -538.48,-546.42 63.22,-1150.66 458.1,-791.84 169.87,154.24 98.87,281.67 192.31,436.51 28.06,-29.29 9.44,5.55 30.12,-50.01l37.49 -218.49c13.88,-104.23 29.81,-207.67 43.06,-312.16 -107.03,19.59 -78.95,95.95 -214.62,36.91 -205.94,-89.62 -393.62,-214.33 -726.85,-78.82 -235.52,95.79 -463.47,421 -387.42,823.98 130.32,690.23 1064.36,798.76 854.76,1599.92zm-72.85 170.53c-274.19,-523 -1020.59,-681.09 -1049.6,-76.88 -21.88,456.63 706.22,708.41 1049.6,76.88z"/>
   </g>
   <path class="fil2" d="M6063.76 5299.53m393.71 -379.22l0 -40.04c0,-71.01 -59.34,-105.76 -140.4,-105.76 -151.26,0 -253.31,112.56 -253.31,271.95 0,154.86 112.9,257.6 244.62,257.6 68.75,0 147.64,-30.21 147.64,-101.23l0 -38.53 -3.62 0c-26.78,29.47 -81.78,49.86 -131,49.86 -93.36,0 -157.77,-61.19 -157.77,-182.81 0,-100.47 65.86,-166.95 154.15,-166.95 42.7,0 104.94,13.6 136.06,55.9l3.62 0zm38.36 379.22m323.5 -138.99l0 -93.68c0,-140.51 -78.16,-182.81 -165.01,-182.81 -102.77,0 -141.85,54.39 -141.85,99.71l0 32.49 3.62 0c14.47,-18.89 53.56,-46.84 123.76,-46.84 57.9,0 83.95,17.38 83.95,74.79l0 5.29 -34.01 0c-143.3,0 -193.96,55.15 -193.96,127.67 0,74.79 63.69,129.17 156.32,129.17l19.54 0c86.85,0 147.64,-59.67 147.64,-145.79zm-94.81 0.75c0,41.54 -20.26,62.7 -62.24,62.7 -42.7,0 -67.3,-18.88 -67.3,-50.61 0,-33.24 20.99,-51.37 94.81,-51.37l34.73 0 0 39.29zm171.53 138.24m225.08 -308.97l0 -36.26c0,-30.98 -20.98,-66.48 -81.06,-66.48 -102.77,0 -144.02,77.81 -144.02,159.39l0 187.35c0,42.31 27.51,64.97 70.93,64.97l26.78 0 0 -234.18c0,-61.95 23.88,-86.87 67.31,-86.87 25.33,0 41.98,6.04 56.45,12.08l3.62 0zm54.28 308.97m343.78 0l0 -237.2c0,-115.58 -75.99,-179.79 -167.91,-179.79 -121.59,0 -175.87,88.38 -175.87,174.5l0 176.01c0,37.77 26.78,66.48 68.03,66.48l28.95 0 0 -235.69c0,-58.16 28.95,-91.4 70.93,-91.4 49.94,0 78.88,30.21 78.88,98.96l0 161.66c0,37.77 27.5,66.48 70.93,66.48l26.06 0zm75.99 0m347.39 -259.11c0,-97.45 -75.27,-157.88 -156.32,-157.88 -111.46,0 -191.07,85.36 -191.07,221.33 0,124.65 94.81,204.72 191.79,204.72 107.11,0 141.12,-40.04 141.12,-92.16l0 -31.72 -3.62 0c-31.12,30.21 -78.88,38.52 -119.41,38.52 -57.18,0 -102.05,-32.48 -109.28,-83.85l63.69 0c128.82,0 183.1,-24.17 183.1,-98.96zm-91.19 -12.09c0,28.71 -20.99,39.28 -112.9,39.28l-43.42 0 0.72 -13.6c2.17,-46.84 34.73,-86.88 81.78,-86.88 44.87,0 73.82,20.4 73.82,61.19zm146.91 271.2m299.63 -128.42c0,-64.97 -43.43,-101.99 -124.49,-115.58 -66.58,-11.33 -78.16,-19.64 -78.16,-40.03 0,-26.44 18.82,-45.33 78.16,-45.33 46.32,0 91.19,16.62 111.46,37.77l3.62 0 0 -38.52c0,-39.28 -36.19,-86.87 -124.49,-86.87 -99.87,0 -165.74,64.96 -165.74,141.27 0,61.95 39.81,95.94 122.31,108.02 67.31,9.82 81.06,21.15 81.06,44.57 0,30.21 -23.16,44.57 -70.92,44.57 -46.32,0 -96.26,-18.13 -117.25,-38.52l-3.62 0 0 46.08c0,41.55 53.56,80.08 125.21,80.08 104.94,0 162.84,-51.37 162.84,-137.48zm235.93 128.42m304.69 -484.98c0,0 0,-29.46 0,-32.49l-222.18 0c-57.9,0 -82.51,15.87 -82.51,80.08l0 376.96c0,40.8 21.71,60.44 57.9,60.44l41.25 0c0,0 0,-70.26 0,-220.59l127.38 0c22.44,0 47.76,-18.13 47.76,-51.37l0 -30.97 -178.76 0 0 -128.43 152.7 0c39.08,0 56.46,-29.46 56.46,-53.63zm50.66 484.98m225.08 -308.97l0 -36.26c0,-30.98 -20.99,-66.48 -81.06,-66.48 -102.77,0 -144.02,77.81 -144.02,159.39l0 187.35c0,42.31 27.51,64.97 70.93,64.97l26.78 0 0 -234.18c0,-61.95 23.88,-86.87 67.31,-86.87 25.33,0 41.98,6.04 56.45,12.08l3.62 0zm61.52 308.97m163.56 -539.37c0,-27.19 -16.64,-38.53 -40.53,-38.53 -28.22,0 -45.59,14.35 -68.75,36.26 -20.99,19.64 -38.35,44.57 -54.28,70.26l0 3.78 32.57 0c26.06,0 59.34,-7.56 83.23,-18.13 29.67,-12.84 47.76,-31.73 47.76,-53.64zm15.93 481.96l0 -21.91 -18.09 0c-42.7,0 -59.34,-12.84 -59.34,-53.63l0 -190.37c0,-51.36 -26.06,-75.54 -69.48,-75.54l-27.5 0c0,0 0,252.31 0,275.73 0,82.34 41.25,126.91 116.52,126.91 41.25,0 57.9,-17.38 57.9,-61.19zm36.91 57.41m323.5 -138.99l0 -93.68c0,-140.51 -78.16,-182.81 -165.01,-182.81 -102.77,0 -141.85,54.39 -141.85,99.71l0 32.49 3.62 0c14.48,-18.89 53.56,-46.84 123.76,-46.84 57.9,0 83.96,17.38 83.96,74.79l0 5.29 -34.01 0c-143.3,0 -193.96,55.15 -193.96,127.67 0,74.79 63.69,129.17 156.32,129.17l19.54 0c86.84,0 147.64,-59.67 147.64,-145.79zm-94.81 0.75c0,41.54 -20.26,62.7 -62.24,62.7 -42.7,0 -67.3,-18.88 -67.3,-50.61 0,-33.24 20.98,-51.37 94.81,-51.37l34.74 0 0 39.29zm152.71 138.24m299.63 -128.42c0,-64.97 -43.43,-101.99 -124.48,-115.58 -66.58,-11.33 -78.16,-19.64 -78.16,-40.03 0,-26.44 18.82,-45.33 78.16,-45.33 46.32,0 91.19,16.62 111.46,37.77l3.62 0 0 -38.52c0,-39.28 -36.19,-86.87 -124.49,-86.87 -99.87,0 -165.74,64.96 -165.74,141.27 0,61.95 39.81,95.94 122.31,108.02 67.31,9.82 81.06,21.15 81.06,44.57 0,30.21 -23.16,44.57 -70.92,44.57 -46.32,0 -96.26,-18.13 -117.24,-38.52l-3.62 0 0 46.08c0,41.55 53.56,80.08 125.21,80.08 104.94,0 162.84,-51.37 162.84,-137.48z"/>
   <path class="fil3" d="M2631.71 2245.63c2460.25,-2999.5 6492.53,-3141.24 7955.69,469.38 -1554.1,-2677.06 -5205.7,-2725.65 -7955.69,-469.38z"/>
   <path class="fil4" d="M2714.64 3842.25c-133.99,11.06 -266.24,22.12 -400.23,33.59 -26.97,50.07 -52.2,99.73 -78.31,150.01 -29.58,54.66 -59.4,108.74 -87.88,163.99 -18.53,35.95 -29.97,68.54 -37.42,97.22 -5.61,21.6 -8.69,43.61 -7.83,65.1 0.88,21.9 9.84,41.25 26.97,58.84 16.81,17.26 45.24,25.25 81.79,24.41 0.87,15.86 0.87,31.71 1.74,47.36 -131.38,13.35 -262.76,27.12 -394.14,40.69 0.87,-15.86 4.35,-32.13 7.83,-48.61 34.8,-12.31 66.11,-32.99 92.23,-62.8 35.65,-40.7 85.66,-122.72 150.52,-244.52 146.56,-275.24 291.7,-547.4 434.16,-816.41 141.17,-266.56 280.16,-529.32 415.89,-789.91 13.92,-0.62 27.84,-1.04 41.76,-1.67 6.09,245.78 10.45,491.77 16.53,737.34 6.09,245.77 12.11,491.99 17.4,737.96 1.66,77.01 4.31,123.73 5.22,140 3.43,61.13 13.3,105.18 32.19,131.02 19.4,26.54 50.46,39.64 91.36,40.48 -2.61,15.65 -5.22,31.3 -7.83,46.74 -188.81,17.73 -379.35,35.68 -569.02,55.08 2.61,-15.86 5.22,-31.92 8.7,-47.99 55.68,-13.15 88.14,-22.4 96.57,-29 17.68,-13.85 31.48,-42.8 45.24,-83.87 14.07,-41.97 20.6,-112.05 19.14,-211.35 -1.14,-77.84 -2.61,-155.65 -2.61,-233.68zm-5.22 -109.54c0,-98.89 0.87,-197.99 0.87,-297.1 0,-98.69 -0.87,-197.79 -1.74,-296.89 -54.82,102.23 -111.07,205.46 -165.31,308.58 -54.51,103.64 -111.37,207.6 -167.05,312.13 110.49,-9.18 221.87,-17.94 333.23,-26.71zm736.07 -1150.02c166.18,-5.63 332.35,-11.65 498.55,-16.9 111.35,-3.52 191.34,3.19 240.14,17.52 63.43,18.63 116.59,56.54 156.61,114.13 40.02,57.58 62.82,123.59 70.48,198.42 6.26,61.2 -2.22,123.86 -24.36,188.4 -22.23,64.81 -59.22,118.87 -111.37,162.74 -52.25,43.96 -134.86,87 -247.1,128.11 124.42,38.18 213.82,91.55 267.11,159.19 53.73,68.19 84.96,148.29 93.97,241.61 8.39,86.95 -6.67,174.97 -45.24,262.88 -38.86,88.59 -95.95,155.47 -169.66,201.96 -72.46,45.71 -212.29,77.5 -417.63,94.72 -182.7,15.32 -364.56,31.92 -547.27,49.03 1.74,-15.65 5.22,-31.3 9.57,-47.15 53.07,-4.8 90.39,-15.16 112.24,-30.25 22.53,-15.57 39.44,-37.01 52.2,-66.35 12.47,-28.67 24.94,-88.3 37.41,-177.55 25.81,-184.68 53.06,-369.29 78.31,-552.89 25.22,-183.39 50.4,-366.59 75.7,-549.35 15.59,-112.67 22.01,-187.8 19.14,-225.33 -2.35,-30.69 -13.38,-56 -33.06,-75.95 -18.61,-18.86 -60.04,-29.84 -121.81,-31.3 1.74,-15.23 4.35,-30.46 6.09,-45.69zm343.67 765.5c83.53,-6.68 149.05,-28.46 195.77,-66.76 44.64,-36.6 79.58,-96.08 101.8,-177.34 22.16,-81.05 31.05,-156.38 25.23,-226.79 -5.49,-66.48 -25.85,-119.56 -59.17,-160.03 -33.67,-40.9 -75.72,-59.76 -124.42,-55.92 -17.42,1.37 -34.8,3.13 -51.33,4.38 -14.79,113.71 -28.3,227.27 -43.5,340.71 -15.25,113.76 -29.58,227.62 -44.38,341.75zm-13.92 99.1c-18.27,131.86 -36.1,263.87 -53.94,396.21 -17.83,132.22 -35.67,265.18 -53.94,397.88 31.32,-0.84 55.66,-2.19 72.22,-3.55 140.92,-11.57 236.12,-72.47 282.77,-183.81 46.44,-110.86 65.41,-227.3 54.82,-348.85 -5.06,-58.1 -20.62,-108.35 -46.11,-152.52 -24.97,-43.26 -53.87,-73.61 -87.01,-89.09 -33.86,-15.81 -91.36,-20.87 -168.79,-16.28zm1369.48 821c-105.27,6.55 -194.54,-15.3 -264.5,-66.35 -70.99,-51.81 -128.02,-124.72 -170.53,-219.7 -42.75,-95.5 -67.04,-189.65 -76.57,-281.87 -9.61,-93.05 -8.28,-187.11 1.74,-282.29 9.99,-94.88 30,-190.63 60.04,-286.88 29.99,-96.12 68.19,-182.58 113.11,-259.55 44.7,-76.59 98.43,-144.27 158.35,-202.38 119.3,-115.68 242.75,-174.89 372.39,-177.14 74.82,-1.3 149.65,23.37 224.47,73.02 74.82,49.66 137.14,118.9 187.93,208.43 51.01,89.9 82.08,179.92 94.84,272.28 14.21,102.94 16.53,206.13 5.22,310.25 -11.31,104.11 -34.64,209.42 -71.34,314.63 -37.25,106.77 -81.24,198.75 -128.77,276.66 -48.18,78.99 -101.62,143.55 -160.09,193.83 -88.56,76.15 -203.59,118.18 -346.28,127.06zm177.49 -1676.84c-49.59,0.86 -89.84,13.7 -120.94,38.18 -30.67,24.14 -61.82,65.07 -92.23,121.43 -30.49,56.52 -59.67,136.94 -87.01,241.39 -27.48,105.02 -48.17,247.42 -62.64,426.88 -7.27,90.11 -11.31,172.96 -11.31,247.66 0,74.69 3.16,142.02 9.57,201.55 10.99,101.97 36.07,177.92 75.7,228.04 39.56,50.03 87,73.12 140.08,69.9 70.47,-4.28 127.19,-37.66 169.66,-101.19 41.92,-62.69 76.93,-139.04 106.15,-229.09 29.07,-89.59 50.87,-192.52 66.99,-309.41 16.07,-116.57 24.36,-226.38 26.1,-329.44 1.74,-102.86 -1.91,-199.02 -13.92,-289.18 -14.95,-112.22 -40.62,-193.62 -79.18,-243.27 -38.88,-50.08 -80.92,-74.24 -127.03,-73.44zm1131.08 763.83c-6.09,83.46 -12.18,166.86 -17.4,250.16 -5.22,83.19 -9.98,167.16 -16.53,250.37 -5.62,71.39 -7.14,124.17 -1.74,157.31 5.04,30.91 19.09,55.78 41.76,73.86 22.57,18.01 66.13,26.71 129.64,26.08 -3.48,14.6 -5.22,28.79 -6.96,42.77 -210.55,7.3 -421.11,17.32 -630.79,27.54 0.87,-13.98 2.61,-28.58 5.22,-42.98 63.52,-2.92 107.07,-21.04 132.25,-53.62 25.28,-32.72 40.98,-103.48 49.59,-212.81 14.01,-177.96 28.27,-355.7 40.89,-533.08 12.61,-177.1 26.58,-354.03 38.28,-530.36 3.95,-59.64 3.15,-106.49 -2.61,-140.62 -5.55,-32.85 -16.58,-57.53 -35.68,-74.48 -19.19,-17.05 -57.42,-28.17 -116.59,-33.17 0,-13.98 2.61,-28.17 3.48,-42.36 171.4,-1.46 344.54,-3.13 517.69,-3.13 148.78,0 258.1,33.92 330.62,100.57 72.78,66.88 118.4,152.44 136.6,257.25 19.22,110.71 2.43,210.95 -53.94,300.23 -35.85,56.77 -108.76,105.15 -217.52,147.3 32.19,82 66.17,163.98 98.32,245.78 32.23,81.98 65.94,164.07 100.05,245.57 55.5,132.57 96.11,211.96 125.29,239.31 28.25,26.48 70.48,41.1 125.29,42.56 1.74,13.98 5.22,27.75 6.96,41.52 -136.6,2.92 -272.33,5.63 -408.93,10.43 -52.2,-132.07 -106.1,-263.4 -157.48,-395.79 -51.29,-132.17 -103.53,-264.76 -154.87,-397.46 -10.44,1.05 -19.12,2.42 -29.58,2.92 -6.95,0.33 -17.4,-0.42 -31.32,-1.67zm5.22 -72.19c20.88,1.46 40.03,1.93 54.82,1.67 89.62,-1.61 156.68,-43.63 200.98,-124.35 44.44,-80.98 55.76,-186.12 33.93,-315.46 -12.96,-76.79 -37.64,-134.56 -75.7,-174.84 -37.64,-39.84 -80.92,-59.84 -129.64,-59.67 -12.18,0.04 -26.97,0.62 -42.63,1.46 -6.96,111.62 -13.05,223.09 -20.01,335.07 -6.96,111.89 -15.66,224.29 -21.75,336.12zm850.92 -721.9c0.87,-13.14 0.87,-27.12 1.74,-40.89 203.59,2.5 408.06,7.09 612.52,11.89 -0.87,13.35 -1.74,27.33 -3.48,40.68 -55.68,-1.46 -94.3,13.53 -117.46,44.86 -22.95,31.05 -33.4,96.83 -35.67,198 -3.82,170.29 -10.45,340.92 -14.79,511.58 -4.35,170.87 -8.98,341.99 -15.66,513.26 -2.88,73.88 -3.05,123.18 1.74,147.72 5.65,28.88 19.91,50.03 42.64,66.76 26.91,19.81 72.22,31.92 137.47,33.59 -1.74,13.77 -1.74,27.54 -1.74,41.1 -218.39,0.62 -435.03,2.5 -651.68,6.68 0.87,-13.77 1.74,-27.75 4.35,-41.73 63.52,-1.25 108.81,-17.49 133.12,-48.82 24.41,-31.47 39.78,-99.74 44.38,-204.26 7.58,-172.55 15.23,-344.45 21.75,-515.97 6.52,-171.69 12.56,-342.96 18.27,-514.5 2.12,-63.6 -1.92,-112.43 -7.83,-144.8 -5.4,-29.59 -19.22,-52.7 -40.02,-70.1 -20.09,-16.81 -63.52,-28.38 -129.64,-35.05zm771.75 -23.99c337.58,13.14 677.78,32.13 1019.71,57.58 0.87,69.89 3.04,140.01 5.22,210.1 2.17,69.91 4.35,139.79 6.09,209.89 -11.31,-1.05 -22.62,-1.88 -33.06,-2.71 -4.35,-22.53 -8.66,-42.78 -13.05,-59.88 -20.84,-81.17 -56.86,-145.72 -108.76,-194.45 -50.77,-47.66 -125.29,-78.45 -221.87,-90.34 1.74,197.79 3.92,395.79 4.35,593.58 0.44,198 0.65,396.63 0,595.04 -0.22,66.35 1.88,115.94 8.7,148.13 6.23,29.37 23.54,53.77 47.86,72.19 24.41,18.5 67,29.63 130.51,33.59 -0.87,13.56 0,27.12 0.87,40.48 -221,-7.93 -440.25,-15.02 -658.64,-18.15 0.87,-13.56 1.74,-27.12 3.48,-40.89 66.12,1.04 112.82,-13.31 136.6,-43.61 23.22,-29.59 35.91,-97.66 37.41,-203.42 2.84,-199.05 5.66,-397.66 6.96,-596.71 1.3,-198.41 0.87,-397.25 0.87,-595.67 -94.83,-0.21 -167.87,22.65 -221.87,70.73 -52.16,46.44 -93.1,127.69 -122.68,241.39 -12.18,-0.63 -24.36,-0.84 -36.54,-1.25 1.74,-70.73 3.05,-142.08 4.35,-212.81 1.3,-70.93 1.74,-141.67 3.48,-212.81zm1837.57 1199.05c-140.08,-20.03 -277.55,-35.88 -415.02,-51.12 -18.27,38.81 -35.67,77.41 -53.07,116.21 -20.01,42.15 -41.11,83.58 -60.04,125.81 -12.41,27.7 -19.77,53.56 -21.75,76.78 -1.49,17.48 -0.41,35.78 4.35,54.24 4.81,18.68 17.12,37.27 38.28,55.08 21.47,18.07 52.2,29.42 92.23,35.05 2.61,13.77 6.96,27.33 9.57,40.9 -135.73,-11.68 -269.72,-20.66 -402.84,-28.58 0,-13.35 0,-26.71 0,-40.27 33.06,-5.22 62.77,-18.03 84.4,-39.85 28.83,-29.08 66.06,-91.63 110.5,-185.48 99.99,-211.17 199.12,-421.1 296.69,-628.21 96.45,-204.73 191.41,-406.85 283.64,-603.6 14.79,2.92 29.58,5.84 44.37,8.76 54.82,217.82 110.09,435.53 164.44,652.83 54.4,217.51 110.31,434.63 165.31,652.21 17.21,68.05 27.95,109.5 32.19,124.14 15.77,54.42 35.52,96.66 60.9,124.77 26.85,29.72 63.52,50.07 108.76,63.64 0,13.14 0.87,26.08 0.87,38.81 -205.34,-44.02 -406.32,-76.78 -604.7,-103.49 0,-13.15 0,-26.5 0.87,-39.85 56.55,0.84 88.71,-0.7 95.71,-4.17 17.36,-8.63 28.31,-29.28 33.93,-61.76 5.68,-32.83 -1.26,-92.96 -21.75,-179.43 -16.05,-67.71 -32.19,-135.61 -47.85,-203.42zm-26.98 -96.39c-20.01,-86.38 -38.74,-172.65 -58.29,-258.71 -19.6,-86.27 -39.16,-172.75 -59.17,-259.13 -36.54,77.62 -76.17,155.42 -113.97,234.93 -37.89,79.68 -76.57,159.61 -113.98,239.31 113.98,12.93 228.83,26.5 345.41,43.61z"/>
  </g>
 </g>
</svg>
